<svg xmlns="http://www.w3.org/2000/svg" viewBox="0 0 300 23.87"><defs><style>.cls-1{fill:#231f20;}</style></defs><title>sac-bee</title><g id="Layer_2" data-name="Layer 2"><g id="sac"><path class="cls-1" d="M14.39,23.42h-10v-.86l1.73-.26c.88-.13,1-.16,1-.72V1.74l-3.06.13c-1.16,0-1.51.46-2,1.44L.91,5.84H0L.66.72H18l.69,5.12h-.88L16.59,3.31c-.5-1.05-.82-1.41-2-1.44l-3.09-.13V21.58c0,.56.13.62,1,.72l1.92.26Z"/><path class="cls-1" d="M28.18,23.42H19.59v-.78l1.19-.23c.78-.15.89-.15.89-.64V5.15c0-.52-.11-.52-.89-.66l-1.19-.24v-.8h8.59v.8l-1.91.24c-.69.08-.81.14-.81.66v7.42h7.65V5.15c0-.52-.08-.58-.8-.66l-1.89-.24v-.8H39v.8l-1.19.24c-.78.11-.89.14-.89.66V21.77c0,.49.11.49.89.64l1.19.23v.78H30.42v-.78l1.89-.23c.72-.12.8-.15.8-.64V13.55H25.46v8.22c0,.49.12.52.81.64l1.91.23Z"/><path class="cls-1" d="M54.39,23.42H40.18v-.78l1.19-.23c.75-.15.88-.15.88-.64V5.15c0-.52-.13-.52-.88-.66l-1.19-.24v-.8H53.92l1,4.44h-.72L53,5.87c-.53-.86-.72-1.09-1.75-1.15l-5.15-.38v8.31l4.57-.17c.75,0,.94,0,1.19-.87l.53-2h.77v7l-.75.05-.55-2c-.28-.89-.44-.92-1.27-.95l-4.49-.14v9l5.26-.38a2.12,2.12,0,0,0,2.08-1.29l1.3-2.66h.75Z"/><path class="cls-1" d="M71.74,0a9.93,9.93,0,0,1,5.42,1.34l.5,4.56h-.88c-.88-2.82-2.33-4.75-5.07-4.75A3.44,3.44,0,0,0,68,4.72C68,10.13,78.2,9.61,78.2,17.18c0,3.64-2.43,6.69-8.28,6.69a14.75,14.75,0,0,1-5.61-1l-.82-5.38h.86c1.07,3.05,2.64,5.25,5.82,5.25,2.45,0,4.06-1.38,4.06-3.87,0-6-9.88-5.18-9.88-12.53C64.35,2.43,67.21,0,71.74,0Z"/><path class="cls-1" d="M82.65,23.42h-5v-.78l.67-.21c1-.31,1.11-.4,1.35-1.15L86.09,3.1h.75l6.9,18.38a1.27,1.27,0,0,0,1.16,1l.75.15v.78h-7.9v-.78l1.41-.15c.84-.08.86-.43.64-1l-1.88-5H82.51L80.94,21.4c-.14.52-.2.8.74,1l1,.23ZM85,8.61l-2.19,6.93h4.8Z"/><path class="cls-1" d="M109.56,4.28,110,9h-.72c-1.08-3.67-2.91-5.14-5.43-5.14-3.36,0-6.1,2.86-6.1,8.77,0,6.9,3,10.22,6.37,10.22,2.28,0,4.08-1.5,5.16-5.13H110l-.47,4.67a10.07,10.07,0,0,1-5.43,1.47A9.93,9.93,0,0,1,93.85,13.63c0-5.88,4.29-10.82,10.16-10.82A9.66,9.66,0,0,1,109.56,4.28Z"/><path class="cls-1" d="M119.41,23.42h-8.34v-.78l1.2-.23c.74-.15.88-.15.88-.64V5.15c0-.52-.14-.52-.88-.66l-1.2-.24v-.8h8.37c3.52,0,6.46,1.3,6.46,4.87,0,2.66-1.66,4.25-4,5l4,7.3a3.24,3.24,0,0,0,2.35,2v.78h-4.9l-5.21-9.56H117v7.91c0,.49.08.52.8.64l1.66.23ZM117,4.28v8.78h.14c3.68,0,5-1.36,5-4.53s-1.35-4.28-3.16-4.28Z"/><path class="cls-1" d="M134,23.42h-5.05v-.78l.67-.21c1-.31,1.11-.4,1.36-1.15L137.42,3.1h.75l6.9,18.38c.28.69.47.87,1.16,1l.75.15v.78h-7.9v-.78l1.42-.15c.83-.08.86-.43.63-1l-1.88-5h-5.4l-1.58,4.94c-.14.52-.2.8.75,1l1,.23Zm2.32-14.81-2.18,6.93h4.79Z"/><path class="cls-1" d="M153.64,23.42H147.9V22.7l1.09-.24c.74-.14.88-.14.88-.63l.36-16.45c-.36-.89-1.08-1-2.3-1.1V3.45h5.54l5.74,14.48,5.54-14.48h5.63v.83c-1.25.06-1.86.21-2.31,1.1V21.83c0,.49.12.52.84.63l1.35.24v.72h-8.39V22.7l1.52-.24c.75-.11.89-.14.89-.63V7.49l-6.15,15.67h-.7L151,6.79l.33,15c0,.49.12.52.84.63l1.52.24Z"/><path class="cls-1" d="M185.5,23.42H171.28v-.78l1.2-.23c.75-.15.88-.15.88-.64V5.15c0-.52-.13-.52-.88-.66l-1.2-.24v-.8H185l1,4.44h-.73l-1.24-2c-.53-.86-.72-1.09-1.75-1.15l-5.15-.38v8.31l4.57-.17c.75,0,.94,0,1.19-.87l.53-2h.77v7l-.75.05-.55-2c-.28-.89-.44-.92-1.27-.95l-4.49-.15v9l5.26-.38a2.12,2.12,0,0,0,2.08-1.3l1.3-2.65h.75Z"/><path class="cls-1" d="M192.76,23.42h-6.27v-.78l1.33-.23c.78-.15.89-.15.89-.64l.36-16.13L189,5.52a2.88,2.88,0,0,0-2.5-1.18V3.45H192l10.22,13.7-.36-12c0-.52-.11-.58-.83-.66l-1.64-.24v-.8h6.24v.8l-1.28.21c-.77.11-.88.17-.88.69l-.36,18.27h-.83L190,6.88l.36,14.89c0,.49.08.52.8.64l1.61.23Z"/><path class="cls-1" d="M219,23.42h-8.79v-.75l1.53-.24c.77-.11.91-.14.91-.63V4.34l-2.69.12c-1,0-1.33.4-1.74,1.27L207.11,8h-.81l.58-4.5h15.27l.61,4.5H222l-1.08-2.22c-.45-.93-.72-1.25-1.75-1.27l-2.72-.12V21.8c0,.49.12.55.84.63l1.69.24Z"/><path class="cls-1" d="M242.26,13c0,6-4.3,10.79-9.79,10.79a10.06,10.06,0,0,1-10.11-10.19c0-5.91,4.27-10.82,9.95-10.82A10,10,0,0,1,242.26,13Zm-16-.52c0,7,2.71,10.3,6.31,10.3,3.36,0,5.71-2.34,5.71-9.52,0-6.87-3.21-9.47-6.23-9.47C228.74,3.82,226.3,6.59,226.3,12.51Z"/><path class="cls-1" d="M250.7,22.53l1.35-.26c.85-.17,1-.17,1-.72V2.66c0-.6-.16-.6-1-.76l-1.35-.26V.72h9c4.41,0,7.46,1.31,7.46,5,0,2.72-1.79,4.3-4.72,4.95,4,.43,6.29,2.73,6.29,6.17,0,4.4-3.71,6.63-8.31,6.63H250.7Zm6.67-20.86v8.82h1.73c2.58,0,3.72-1.41,3.72-4.59s-1.48-4.23-3.75-4.23Zm0,9.74V22.5H260c2.89,0,4.24-2.23,4.24-5.61,0-3.61-1.54-5.48-4.94-5.48Z"/><path class="cls-1" d="M283,23.42H268.8v-.78l1.19-.23c.75-.15.89-.15.89-.64V5.15c0-.52-.14-.52-.89-.67l-1.19-.23v-.8h13.75l1,4.44h-.72l-1.25-2c-.52-.86-.72-1.09-1.74-1.15l-5.15-.38v8.31l4.57-.17c.74,0,.94,0,1.19-.87l.53-2h.77v7l-.75.05-.55-2c-.28-.89-.45-.92-1.28-.95l-4.48-.15v9L280,22.2a2.12,2.12,0,0,0,2.08-1.3l1.3-2.65h.75Z"/><path class="cls-1" d="M298.92,23.42H284.7v-.78l1.2-.23c.74-.15.88-.15.88-.64V5.15c0-.52-.14-.52-.88-.67l-1.2-.23v-.8h13.75l1,4.44h-.72l-1.24-2c-.53-.86-.72-1.09-1.75-1.15l-5.15-.38v8.31l4.57-.17c.75,0,.94,0,1.19-.87l.53-2h.77v7l-.75.05-.55-2c-.28-.89-.44-.92-1.27-.95l-4.49-.15v9l5.26-.38A2.12,2.12,0,0,0,298,20.9l1.3-2.65H300Z"/></g></g></svg>